<svg width="132" height="132" viewBox="0 0 132 132" fill="none" xmlns="http://www.w3.org/2000/svg">
<path d="M22 90.7494C22 99.8618 29.3873 107.249 38.5 107.249C38.5 114.843 44.6561 120.999 52.25 120.999C59.8438 120.999 66 114.843 66 107.249C66 114.843 72.1562 120.999 79.75 120.999C87.3438 120.999 93.5 114.843 93.5 107.249C102.613 107.249 110 99.8613 110 90.7489C110 87.621 109.13 84.6967 107.618 82.2046C115.24 80.7466 121 74.0454 121 65.9989C121 57.9518 115.24 51.2507 107.618 49.7929C109.13 47.3006 110 44.3763 110 41.2487C110 32.1359 102.613 24.7487 93.5 24.7487C93.5 17.1547 87.3438 10.9987 79.75 10.9987C72.1562 10.9987 66 17.1552 66 24.7492C66 17.1552 59.8438 10.9992 52.25 10.9992C44.6561 10.9992 38.5 17.1552 38.5 24.7492C29.3873 24.7492 22 32.1365 22 41.2492C22 44.3768 22.8702 47.3012 24.3817 49.7934C16.76 51.2512 11 57.9524 11 65.9994C11 74.0459 16.76 80.7471 24.3817 82.2052C22.8702 84.6972 22 87.6216 22 90.7494Z" stroke="#141B34" stroke-width="8.25" stroke-linecap="round" stroke-linejoin="round"/>
<path d="M41.25 79.7494L51.3804 49.3582C51.8997 47.8002 53.3577 46.7493 55 46.7493C56.6423 46.7493 58.1004 47.8002 58.6196 49.3582L68.75 79.7494M85.25 46.7493V79.7494M46.75 68.7494H63.25" stroke="#141B34" stroke-width="8.25" stroke-linecap="round" stroke-linejoin="round"/>
</svg>
